<svg version="1.1" viewBox="0.0 0.0 207.75590551181102 100.0" fill="none" stroke="none" stroke-linecap="square" stroke-miterlimit="10" xmlns:xlink="http://www.w3.org/1999/xlink" xmlns="http://www.w3.org/2000/svg"><clipPath id="p.0"><path d="m0 0l207.7559 0l0 100.0l-207.7559 0l0 -100.0z" clip-rule="nonzero"/></clipPath><g clip-path="url(#p.0)"><path fill="#000000" fill-opacity="0.0" d="m0 0l207.7559 0l0 100.0l-207.7559 0z" fill-rule="evenodd"/><g filter="url(#shadowFilter-p.1)"><use xlink:href="#p.1" transform="matrix(1.0 0.0 0.0 1.0 0.0 2.0)"/></g><defs><filter id="shadowFilter-p.1" filterUnits="userSpaceOnUse"><feGaussianBlur in="SourceAlpha" stdDeviation="2.0" result="blur"/><feComponentTransfer in="blur" color-interpolation-filters="sRGB"><feFuncR type="linear" slope="0" intercept="0.0"/><feFuncG type="linear" slope="0" intercept="0.0"/><feFuncB type="linear" slope="0" intercept="0.0"/><feFuncA type="linear" slope="0.5" intercept="0"/></feComponentTransfer></filter></defs><g id="p.1"><path fill="#000000" fill-opacity="0.0" d="m0 -8.425197l181.95276 0l0 71.08662l-181.95276 0z" fill-rule="evenodd"/><path fill="#000000" d="m46.03125 14.237927q0 3.624999 -2.5625 6.249999q-2.5625 2.625 -7.46875 3.765625q2.640625 0.734375 4.0 2.375q1.375 1.640625 1.375 3.765625q0 3.375 -2.109375 5.859375q-2.109375 2.46875 -6.171875 3.8125q-4.046875 1.34375 -9.765625 1.34375q-2.125 0 -3.40625 -0.125q-0.046875 1.1875 -1.03125 1.78125q-0.96875 0.59375 -2.515625 0.59375q-1.53125 0 -2.109375 -0.6875q-0.578125 -0.671875 -0.484375 -1.984375q0.375 -5.984375 1.484375 -12.53125q1.109375 -6.546875 2.8125 -12.640624q0.3125 -1.0625 1.203125 -1.484375q0.890625 -0.4375 2.34375 -0.4375q2.609375 0 2.609375 1.453125q0 0.59375 -0.265625 1.359374q-1.109375 3.328125 -2.21875 9.03125q-1.109375 5.6875 -1.578125 10.84375q2.046875 0.171875 3.328125 0.171875q5.96875 0 8.765625 -1.71875q2.796875 -1.734375 2.796875 -4.421875q0 -1.875 -1.609375 -3.15625q-1.59375 -1.28125 -5.34375 -1.40625q-0.859375 -0.046875 -1.203125 -0.421875q-0.328125 -0.390625 -0.328125 -1.234375q0 -1.25 0.5 -2.015625q0.515625 -0.765625 1.890625 -0.8125q3.015625 -0.078125 5.46875 -0.890625q2.453125 -0.8125 3.859375 -2.28125q1.421875 -1.46875 1.421875 -3.437499q0 -2.46875 -2.4375 -3.890625q-2.4375 -1.4375 -7.46875 -1.4375q-4.5625 0 -8.828125 1.171875q-4.265625 1.171875 -7.25 2.96875q-1.359375 0.8125 -2.296875 0.8125q-0.78125 0 -1.1875 -0.53125q-0.390625 -0.546875 -0.390625 -1.34375q0 -1.078125 0.4375 -1.84375q0.453125 -0.765625 2.15625 -1.75q3.578125 -2.046875 8.390625 -3.1875q4.828125 -1.15625 9.875 -1.15625q7.71875 0 11.515625 2.609375q3.796875 2.59375 3.796875 6.859375zm3.835617 27.515625q-2.640625 0 -4.21875 -1.921875q-1.578125 -1.921875 -1.578125 -5.03125q0 -3.421875 1.578125 -6.46875q1.578125 -3.046875 4.1875 -4.90625q2.625 -1.859375 5.578125 -1.859375q0.9375 0 1.25 0.375q0.328125 0.359375 0.53125 1.296875q0.90625 -0.171875 1.890625 -0.171875q2.078125 0 2.078125 1.484375q0 0.90625 -0.640625 4.265625q-0.96875 4.90625 -0.96875 6.828125q0 0.640625 0.3125 1.03125q0.3125 0.375 0.828125 0.375q0.8125 0 1.96875 -1.03125q1.15625 -1.046875 3.109375 -3.40625q0.515625 -0.59375 1.15625 -0.59375q0.546875 0 0.859375 0.515625q0.328125 0.515625 0.328125 1.40625q0 1.703125 -0.8125 2.640625q-1.75 2.1875 -3.71875 3.6875q-1.953125 1.484375 -3.78125 1.484375q-1.40625 0 -2.578125 -0.953125q-1.171875 -0.96875 -1.78125 -2.640625q-2.21875 3.59375 -5.578125 3.59375zm1.53125 -4.3125q0.9375 0 1.78125 -1.109375q0.859375 -1.109375 1.25 -2.9375l1.578125 -7.859375q-1.796875 0.046875 -3.3125 1.359375q-1.515625 1.296875 -2.40625 3.4375q-0.890625 2.125 -0.890625 4.5q0 1.328125 0.53125 1.96875q0.53125 0.640625 1.46875 0.640625zm21.407776 4.3125q-4.171875 0 -6.5 -2.359375q-2.328125 -2.375 -2.328125 -6.265625q0 -3.453125 1.359375 -6.046875q1.375 -2.609375 3.546875 -4.015625q2.1875 -1.40625 4.5625 -1.40625q2.359375 0 3.65625 1.390625q1.296875 1.375 1.296875 3.5625q0 1.78125 -0.796875 3.03125q-0.78125 1.234375 -2.0625 1.234375q-0.8125 0 -1.296875 -0.390625q-0.484375 -0.390625 -0.484375 -1.0625q0 -0.296875 0.078125 -0.6875q0.078125 -0.390625 0.125 -0.546875q0.21875 -0.640625 0.21875 -1.203125q0 -0.546875 -0.28125 -0.84375q-0.28125 -0.3125 -0.78125 -0.3125q-0.984375 0 -1.84375 0.875q-0.84375 0.875 -1.359375 2.375q-0.515625 1.484375 -0.515625 3.28125q0 4.953125 4.3125 4.953125q1.75 0 3.765625 -1.171875q2.03125 -1.171875 4.0 -3.53125q0.5 -0.59375 1.140625 -0.59375q0.5625 0 0.875 0.515625q0.328125 0.515625 0.328125 1.40625q0 1.625 -0.8125 2.640625q-2.0 2.484375 -4.796875 3.828125q-2.796875 1.34375 -5.40625 1.34375zm25.681854 -4.65625q1.75 0.34375 1.75 1.921875q0 1.0625 -0.96875 1.90625q-0.953125 0.828125 -2.734375 0.828125q-3.078125 0 -5.015625 -1.890625q-1.9375 -1.90625 -1.9375 -4.984375q0 -1.65625 1.703125 -2.390625q1.875 -0.8125 2.6875 -1.71875q0.8125 -0.921875 0.8125 -2.25q0 -0.765625 -0.328125 -1.140625q-0.3125 -0.390625 -0.78125 -0.390625q-1.15625 0 -2.546875 1.671875q-1.375 1.65625 -2.578125 4.28125q-1.1875 2.625 -1.875 5.390625q-0.46875 2.015625 -1.09375 2.71875q-0.609375 0.703125 -1.9375 0.703125q-1.3125 0 -1.9375 -0.953125q-0.625 -0.96875 -0.84375 -2.96875q-0.203125 -2.015625 -0.203125 -5.890625q0 -6.578125 1.34375 -13.6875q1.34375 -7.124999 3.96875 -11.968749q2.625 -4.84375 6.296875 -4.84375q1.953125 0 3.171875 1.6875q1.21875 1.6718752 1.21875 4.359375q0 4.3125 -2.515625 8.953124q-2.515625 4.625 -8.1875 10.796875q-0.140625 2.21875 -0.140625 4.578125q2.0625 -5.34375 4.703125 -7.75q2.640625 -2.40625 4.9375 -2.40625q2.140625 0 3.4375 1.453125q1.296875 1.4375 1.296875 3.578125q0 2.34375 -1.1875 4.3125q-1.1875 1.953125 -4.09375 3.5q0.25 1.265625 1.03125 1.765625q0.796875 0.484375 2.546875 0.828125zm-7.125 -31.4375q-0.765625 0 -1.703125 2.203125q-0.9375 2.1875 -1.8125 5.921875q-0.875 3.734374 -1.421875 8.124999q2.640625 -3.109375 4.359375 -6.781249q1.734375 -3.671875 1.734375 -6.65625q0 -1.359375 -0.296875 -2.078125q-0.296875 -0.734375 -0.859375 -0.734375zm34.637146 36.09375q-3.578125 0 -5.421875 -1.984375q-1.828125 -1.984375 -1.828125 -5.3125q0 -1.875 0.5625 -4.5625l2.640625 -12.203125q0.078125 -0.34375 0.390625 -1.874999q0.328125 -1.53125 0.328125 -3.328125q0 -1.03125 -0.40625 -1.53125q-0.390625 -0.515625 -1.078125 -0.515625q-1.28125 0 -2.984375 1.21875q-1.703125 1.203125 -3.59375 3.734375q-0.59375 0.79687405 -1.3125 0.79687405q-0.59375 0 -1.046875 -0.56249905q-0.453125 -0.578125 -0.453125 -1.3125q0 -1.3125 1.203125 -2.984375q4.34375 -5.96875 10.1875 -5.96875q2.609375 0 4.078125 1.578125q1.46875 1.578125 1.46875 4.65625q0 2.171875 -0.296875 4.015625q-0.296875 1.828124 -1.03125 4.984374l-1.734375 7.796875q-0.09375 0.390625 -0.3125 1.375q-0.203125 0.96875 -0.34375 1.84375q-0.125 0.875 -0.125 1.734375q0 1.359375 0.765625 2.171875q0.78125 0.8125 2.1875 0.8125q2.5625 0 5.171875 -2.71875q2.625 -2.734375 4.859375 -8.8125q2.25 -6.09375 3.484375 -15.562499q0.296875 -2.171875 0.875 -3.015625q0.578125 -0.859375 2.234375 -0.859375q1.5 0 2.21875 0.90625q0.734375 0.890625 0.734375 2.890625q0 1.15625 -0.28125 3.03125q-0.28125 1.875 -0.828125 5.249999q-1.15625 6.515625 -1.84375 11.984375q-0.328125 2.46875 -0.328125 3.65625q0 1.75 0.78125 2.671875q0.796875 0.921875 2.109375 0.921875q1.40625 0 2.75 -0.9375q1.34375 -0.9375 3.1875 -3.125q0.5 -0.59375 1.140625 -0.59375q0.5625 0 0.875 0.515625q0.328125 0.515625 0.328125 1.40625q0 1.671875 -0.8125 2.640625q-2.21875 2.6875 -4.390625 3.9375q-2.171875 1.234375 -4.5625 1.234375q-3.546875 0 -5.421875 -1.8125q-1.875 -1.8125 -1.875 -4.71875q0 -1.625 0.6875 -6.3125q-2.140625 6.265625 -5.40625 9.5625q-3.265625 3.28125 -7.53125 3.28125zm42.745255 -13.234375q0 3.375 -1.5625 6.390625q-1.546875 3.0 -4.140625 4.875q-2.578125 1.875 -5.515625 1.96875q-0.546875 8.234375 -2.515625 13.75q-1.96875 5.53125 -5.75 5.53125q-2.3125 0 -3.421875 -1.671875q-1.109375 -1.65625 -1.109375 -4.609375q0 -4.171875 1.921875 -9.75q1.921875 -5.5625 5.921875 -12.25q0 -6.234375 -0.078125 -8.671875q-0.046875 -1.234375 0.96875 -1.953125q1.03125 -0.734375 2.578125 -0.734375q0.890625 0 1.296875 0.375q0.40625 0.359375 0.453125 1.421875q0 1.0625 0.03125 1.578125q1.375 -1.703125 2.6875 -2.453125q1.328125 -0.75 2.8125 -0.75q2.390625 0 3.90625 1.921875q1.515625 1.921875 1.515625 5.03125zm-11.0 9.140625q1.53125 -0.34375 2.828125 -1.6875q1.3125 -1.34375 2.078125 -3.328125q0.765625 -1.984375 0.765625 -4.15625q0 -1.28125 -0.515625 -1.9375q-0.515625 -0.671875 -1.359375 -0.671875q-1.546875 0 -3.71875 3.25q-0.03125 1.875 -0.03125 5.5q0 1.953125 -0.046875 3.03125zm-8.15625 19.1875q1.15625 0 1.921875 -5.015625q0.765625 -5.0 0.984375 -12.46875q-1.828125 4.265625 -2.890625 8.140625q-1.078125 3.890625 -1.078125 6.53125q0 1.359375 0.328125 2.078125q0.3125 0.734375 0.734375 0.734375z" fill-rule="nonzero"/></g><g mask="url(#mask-p.2)"><use xlink:href="#p.2" transform="matrix(1.0 0.0 0.0 -1.0 0.0 164.82939632545933)"/></g><defs><mask id="mask-p.2" maskUnits="userSpaceOnUse" x="-3.4750656167979" y="76.41469816272966" width="211.21259842519686" height="48.03149606299212"><linearGradient gradientUnits="userSpaceOnUse" id="gradient-p.2" x1="2.5249343858126645" y1="84.41397701510024" x2="2.5248952549304886" y2="95.22364260768256"><stop offset="0%" stop-color="#ffffff" stop-opacity="1.0"/><stop offset="100%" stop-color="#ffffff" stop-opacity="0.0"/></linearGradient><rect fill="url(#gradient-p.2)" x="-3.4750656167979" y="76.41469816272966" width="211.21259842519686" height="48.03149606299212"/></mask></defs><g id="p.2"><g filter="url(#shadowFilter-p.3)"><use xlink:href="#p.3" transform="matrix(1.0 0.0 0.0 1.0 0.0 2.0)"/></g><defs><filter id="shadowFilter-p.3" filterUnits="userSpaceOnUse"><feGaussianBlur in="SourceAlpha" stdDeviation="2.0" result="blur"/><feComponentTransfer in="blur" color-interpolation-filters="sRGB"><feFuncR type="linear" slope="0" intercept="0.0"/><feFuncG type="linear" slope="0" intercept="0.0"/><feFuncB type="linear" slope="0" intercept="0.0"/><feFuncA type="linear" slope="0.5" intercept="0"/></feComponentTransfer></filter></defs><g id="p.3"><path fill="#6cd4bf" fill-opacity="0.9701" d="m2.5249343 71.40682l9.007874 -9.007874l0 4.503937l176.69292 0l0 -13.51181l-4.503937 0l9.007874 -9.007874l9.007874 9.007874l-4.503937 0l0 22.519684l-185.70079 0l0 4.503937z" fill-rule="evenodd"/></g></g></g></svg>