<svg version="1.1" viewBox="0.0 0.0 978.0 114.0" fill="none" stroke="none" stroke-linecap="square" stroke-miterlimit="10" xmlns:xlink="http://www.w3.org/1999/xlink" xmlns="http://www.w3.org/2000/svg"><clipPath id="p.0"><path d="m0 0l978.0 0l0 114.0l-978.0 0l0 -114.0z" clip-rule="nonzero"/></clipPath><g clip-path="url(#p.0)"><path fill="#000000" fill-opacity="0.0" d="m0 0l978.0 0l0 114.0l-978.0 0z" fill-rule="evenodd"/><path fill="#000000" fill-opacity="0.0" d="m-7.6272964 -15.727035l985.6378 0l0 117.95276l-985.6378 0z" fill-rule="evenodd"/><path fill="#434343" d="m4.4664536 19.712343l0 -6.109376l29.1875 0q6.921875 0 12.5625 1.796875q5.65625 1.781251 9.765625 5.406251q4.109375 3.625 6.34375 9.0q2.234375 5.359373 2.234375 12.437498q0 7.0625 -2.234375 12.484375q-2.234375 5.40625 -6.34375 9.109375q-4.109375 3.6875 -9.765625 5.609375q-5.640625 1.90625 -12.5625 1.90625l-29.1875 0l0 -6.09375l0.96875 0q2.125 0 3.546875 -0.5625q1.421875 -0.578125 1.421875 -2.375l0 -39.6875q0 -1.703125 -1.421875 -2.3125q-1.421875 -0.609375 -3.546875 -0.609375l-0.96875 0zm28.0625 0.484375l-7.078125 0l0 44.5625l7.078125 0q3.890625 0 6.90625 -1.375q3.015625 -1.390625 5.078125 -4.234375q2.078125 -2.84375 3.171875 -7.0625q1.109375 -4.234375 1.109375 -9.84375q0 -5.625 -1.109375 -9.765625q-1.09375 -4.140623 -3.171875 -6.859373q-2.0625 -2.734375 -5.078125 -4.078125q-3.015625 -1.34375 -6.90625 -1.34375zm53.09575 29.437498q0 4.3125 0.765625 7.328125q0.78125 3.0 2.28125 4.875q1.515625 1.875 3.78125 2.734375q2.28125 0.84375 5.296875 0.84375q3.09375 0 5.328125 -0.96875q2.234375 -0.984375 3.890625 -2.640625q1.671875 -1.671875 2.890625 -3.703125l5.453125 3.8125q-1.703125 3.25 -4.390625 5.609375q-2.6875 2.359375 -6.34375 3.578125q-3.65625 1.21875 -8.625 1.21875q-7.484375 0 -12.96875 -2.59375q-5.484375 -2.609375 -8.5 -7.6875q-3.0 -5.078125 -3.0 -12.328125q0 -6.984375 2.875 -12.1875q2.890625 -5.203125 8.09375 -8.093748q5.203125 -2.890625 11.953125 -2.890625q5.453125 0 9.4375 1.625q3.984375 1.625 6.625 4.796873q2.65625 3.171875 3.984375 7.9375q1.34375 4.75 1.4375 11.09375l-33.671875 0l0 -5.765625l22.109375 0l-1.703125 2.265625q-0.078125 -4.625 -0.578125 -7.625q-0.484375 -3.015625 -1.375 -4.71875q-0.890625 -1.71875 -2.40625 -2.40625q-1.5 -0.703125 -3.609375 -0.703125q-2.109375 0 -3.78125 0.859375q-1.671875 0.859375 -2.859375 2.765625q-1.171875 1.90625 -1.78125 5.125q-0.609375 3.21875 -0.609375 7.84375zm42.46392 12.6875l0 -39.6875q0 -1.78125 -1.4374924 -2.34375q-1.421875 -0.578125 -3.53125 -0.578125l-1.296875 0l0 -6.109376l27.640617 0l0 6.109376l-1.21875 0q-2.1875 0 -3.609375 0.578125q-1.421875 0.5625 -1.421875 2.34375l0 39.6875q0 1.796875 1.421875 2.375q1.421875 0.5625 3.609375 0.5625l1.21875 0l0 6.09375l-27.640617 0l0 -6.09375l1.296875 0q2.109375 0 3.53125 -0.5625q1.4374924 -0.578125 1.4374924 -2.375zm27.160645 9.03125l0 -5.375l0.234375 0q1.46875 0 2.484375 -0.359375q1.015625 -0.359375 1.578125 -1.25q0.578125 -0.90625 0.578125 -2.453125l0 -25.609375q0 -0.90625 -0.453125 -1.34375q-0.4375 -0.453125 -1.34375 -0.734375q-0.890625 -0.28125 -2.34375 -0.609375l-0.734375 -0.171875l0 -6.015623l17.640625 0l0.984375 9.921873l0.5625 0.25l0 27.65625q0 0.234375 0.640625 0.40625q0.65625 0.15625 1.546875 0.234375q0.90625 0.078125 1.640625 0.078125l0.328125 0l0 5.375l-23.34375 0zm52.859375 0l-23.34375 0l0 -5.375l0.25 0q0.8125 0 1.703125 -0.03125q0.890625 -0.046875 1.546875 -0.25q0.65625 -0.203125 0.65625 -0.4375l0 -24.890625q0 -1.796875 -0.453125 -3.015625q-0.453125 -1.21875 -1.515625 -1.828125q-1.046875 -0.609375 -2.828125 -0.609375q-1.953125 0 -3.90625 1.109375q-1.953125 1.09375 -3.875 3.203125q-1.90625 2.109375 -3.9375 5.453125l0.25 -6.421875q1.78125 -3.578125 4.421875 -6.1875q2.640625 -2.609373 5.9375 -4.062498q3.296875 -1.46875 6.953125 -1.46875q4.234375 0 7.15625 1.515625q2.9375 1.5 4.515625 4.468748q1.59375 2.96875 1.59375 7.359375l0 22.03125q0 1.546875 0.5625 2.453125q0.578125 0.890625 1.59375 1.25q1.015625 0.359375 2.46875 0.359375l0.25 0l0 5.375zm31.226974 -10.984375q0 -1.625 -0.859375 -2.671875q-0.84375 -1.0625 -2.3125 -1.703125q-1.453125 -0.65625 -3.328125 -1.109375q-1.875 -0.453125 -3.90625 -0.9375q-2.765625 -0.65625 -5.453125 -1.5q-2.6875 -0.859375 -4.890625 -2.3125q-2.1875 -1.46875 -3.484375 -3.828125q-1.296875 -2.359375 -1.296875 -5.9375q0 -4.796875 2.390625 -7.890625q2.40625 -3.093748 6.75 -4.593748q4.359375 -1.5 10.21875 -1.5q4.71875 0 8.171875 0.578125q3.453125 0.5625 5.609375 1.296875q2.15625 0.71875 2.96875 1.203125l0 9.921873l-10.25 0l0 -7.796873q1.21875 -0.171875 1.859375 0.15625q0.65625 0.3281231 0.90625 0.8593731q0.25 0.53125 0.203125 1.1875q-0.046875 0.640625 -0.203125 1.296875q-0.96875 -0.8125 -2.359375 -1.34375q-1.375 -0.53125 -3.09375 -0.8125q-1.703125 -0.296875 -3.8125 -0.296875q-3.671875 0 -5.421875 1.1875q-1.734375 1.171875 -1.734375 3.53125q0 1.546875 0.8125 2.53125q0.8125 0.96875 2.3125 1.625q1.5 0.640625 3.453125 1.140625q1.953125 0.484375 4.15625 0.96875q2.84375 0.65625 5.609375 1.546875q2.765625 0.890625 5.03125 2.40625q2.28125 1.5 3.65625 3.859375q1.390625 2.359375 1.390625 5.859375q0 4.953125 -2.3125 8.25q-2.3125 3.296875 -7.03125 5.0q-4.71875 1.703125 -11.796875 1.703125q-4.5625 0 -8.21875 -0.609375q-3.65625 -0.609375 -6.21875 -1.5q-2.5625 -0.890625 -3.9375 -1.703125l0 -10.734375l10.484375 0l0 10.40625q-1.546875 -0.578125 -2.40625 -1.34375q-0.84375 -0.78125 -1.140625 -1.59375q-0.28125 -0.8125 -0.078125 -1.328125q0.203125 -0.53125 0.78125 -0.53125q1.0625 0.734375 2.640625 1.34375q1.59375 0.609375 3.65625 0.96875q2.078125 0.359375 4.515625 0.359375q2.765625 0 4.515625 -0.5625q1.75 -0.5625 2.59375 -1.828125q0.859375 -1.265625 0.859375 -3.21875zm36.51494 -32.9375l0 30.828123q0 1.796875 0.453125 3.0625q0.453125 1.25 1.5 1.859375q1.0625 0.609375 2.765625 0.609375q1.953125 0 3.828125 -1.015625q1.875 -1.015625 3.78125 -3.171875q1.90625 -2.15625 3.859375 -5.484375l-0.15625 6.5q-1.875 3.578125 -4.515625 6.1875q-2.640625 2.59375 -5.859375 3.984375q-3.21875 1.375 -6.796875 1.375q-4.140625 0 -7.078125 -1.5q-2.921875 -1.515625 -4.46875 -4.515625q-1.546875 -3.015625 -1.546875 -7.234375l0 -22.609375q0 -1.3125 -1.015625 -1.828125q-1.015625 -0.53125 -3.203125 -0.859375l-0.984375 -0.171875l0 -6.015623l19.4375 0zm28.46875 0l0 35.296875q0 0.90625 0.484375 1.390625q0.5 0.484375 1.46875 0.734375q0.96875 0.234375 2.359375 0.484375l0.5625 0.15625l0 5.859375l-17.484375 0l-1.140625 -10.078125l-0.5625 -0.5l0 -24.46875q0 -1.3125 -1.3125 -1.875q-1.296875 -0.578125 -3.40625 -0.8125l-1.46875 -0.25l0 -5.937498l20.5 0zm44.644867 -0.328125l0 12.937498q-0.640625 -0.078125 -1.75 -0.203125q-1.09375 -0.125 -2.359375 -0.203125q-1.25 -0.078125 -2.390625 -0.078125q-1.796875 0 -3.390625 0.25q-1.578125 0.234375 -2.921875 0.8125q-1.328125 0.5625 -2.46875 1.421875q-1.140625 0.84375 -2.203125 2.234375l-0.234375 -3.09375q1.953125 -4.640625 3.859375 -7.890625q1.90625 -3.249998 4.390625 -4.953123q2.484375 -1.71875 6.140625 -1.71875q1.140625 0 2.03125 0.171875q0.890625 0.15625 1.296875 0.3125zm-35.125 44.25l0 -5.375l0.234375 0q2.203125 0 3.421875 -0.84375q1.21875 -0.859375 1.21875 -3.21875l0 -25.609375q0 -0.8125 -0.453125 -1.296875q-0.4375 -0.5 -1.34375 -0.78125q-0.890625 -0.28125 -2.34375 -0.609375l-0.734375 -0.171875l0 -6.015623l17.5625 0l1.140625 12.687498l0.484375 -0.234375l0 24.96875q0 0.484375 0.84375 0.734375q0.859375 0.234375 2.15625 0.3125q1.3125 0.078125 2.53125 0.078125l0.890625 0l0 5.375l-25.609375 0zm68.15643 -26.59375l0 5.28125q-3.75 0.65625 -6.359375 1.390625q-2.59375 0.734375 -4.265625 1.625q-1.65625 0.890625 -2.59375 1.953125q-0.9375 1.046875 -1.34375 2.3125q-0.40625 1.265625 -0.40625 2.734375q0 2.03125 0.640625 3.296875q0.65625 1.25 1.90625 1.828125q1.265625 0.5625 2.984375 0.5625q1.78125 0 3.28125 -0.8125q1.515625 -0.8125 3.015625 -2.59375q1.5 -1.796875 3.046875 -4.5625l0.5 4.21875q-1.640625 3.5 -3.71875 5.78125q-2.0625 2.28125 -4.75 3.375q-2.6875 1.09375 -6.34375 1.09375q-4.46875 0 -7.5625 -1.25q-3.09375 -1.265625 -4.6875 -3.828125q-1.578125 -2.5625 -1.578125 -6.46875q0 -3.5 1.546875 -6.015625q1.546875 -2.515625 4.921875 -4.34375q3.375 -1.84375 8.703125 -3.171875q5.328125 -1.34375 13.0625 -2.40625zm0.3125 26.59375l-0.96875 -8.953125l-0.578125 0.09375l0 -23.671875q0 -1.875 -0.5625 -3.171875q-0.5625 -1.296875 -2.0 -1.90625q-1.421875 -0.609375 -4.09375 -0.609375q-3.75 0 -6.234375 1.015625q-2.46875 1.015625 -3.453125 2.3125q-0.5625 -0.484375 -0.609375 -1.125q-0.03125 -0.65625 0.453125 -1.3125q0.484375 -0.65625 1.375 -1.09375q0.90625 -0.453125 2.28125 -0.453125l0 9.4375l-11.546875 0l0 -10.328123q1.296875 -0.8125 3.8125 -1.984375q2.53125 -1.1875 6.34375 -2.125q3.828125 -0.9375 8.953125 -0.9375q4.390625 0 7.96875 0.8125q3.578125 0.8125 6.09375 2.484375q2.53125 1.671875 3.875 4.312498q1.34375 2.640625 1.34375 6.21875l0 22.359375q0 0.90625 0.484375 1.390625q0.484375 0.484375 1.421875 0.734375q0.9375 0.234375 2.40625 0.484375l0.484375 0.15625l0 5.859375l-17.25 0zm21.561249 0l0 -5.375l0.234375 0q1.46875 0 2.484375 -0.359375q1.015625 -0.359375 1.578125 -1.25q0.578125 -0.90625 0.578125 -2.453125l0 -25.609375q0 -0.90625 -0.453125 -1.34375q-0.4375 -0.453125 -1.34375 -0.734375q-0.890625 -0.28125 -2.34375 -0.609375l-0.734375 -0.171875l0 -6.015623l17.640625 0l0.984375 9.921873l0.5625 0.25l0 27.65625q0 0.234375 0.640625 0.40625q0.65625 0.15625 1.546875 0.234375q0.90625 0.078125 1.640625 0.078125l0.328125 0l0 5.375l-23.34375 0zm52.859375 0l-23.34375 0l0 -5.375l0.25 0q0.8125 0 1.703125 -0.03125q0.890625 -0.046875 1.546875 -0.25q0.65625 -0.203125 0.65625 -0.4375l0 -24.890625q0 -1.796875 -0.453125 -3.015625q-0.453125 -1.21875 -1.515625 -1.828125q-1.046875 -0.609375 -2.828125 -0.609375q-1.953125 0 -3.90625 1.109375q-1.953125 1.09375 -3.875 3.203125q-1.90625 2.109375 -3.9375 5.453125l0.25 -6.421875q1.78125 -3.578125 4.421875 -6.1875q2.640625 -2.609373 5.9375 -4.062498q3.296875 -1.46875 6.953125 -1.46875q4.234375 0 7.15625 1.515625q2.9375 1.5 4.515625 4.468748q1.59375 2.96875 1.59375 7.359375l0 22.03125q0 1.546875 0.5625 2.453125q0.578125 0.890625 1.59375 1.25q1.015625 0.359375 2.46875 0.359375l0.25 0l0 5.375zm31.22699 -6.015625q2.84375 0 5.0 -1.140625q2.15625 -1.140625 3.78125 -3.0q1.625 -1.875 2.765625 -3.828125l5.203125 3.5q-1.53125 3.40625 -4.1875 6.015625q-2.640625 2.59375 -6.296875 3.984375q-3.65625 1.375 -8.375 1.375q-7.234375 0 -12.734375 -2.640625q-5.484375 -2.640625 -8.53125 -7.765625q-3.046875 -5.125 -3.046875 -12.4375q0 -7.328125 2.96875 -12.40625q2.96875 -5.078123 8.484375 -7.718748q5.53125 -2.65625 13.265625 -2.65625q4.640625 0 8.09375 0.65625q3.453125 0.65625 5.71875 1.515625q2.28125 0.84375 3.34375 1.484375l0 13.515623l-11.140625 0l0 -11.968748q1.0625 0 1.703125 0.5312481q0.65625 0.53125 0.9375 1.3125q0.28125 0.765625 0.234375 1.5q-0.03125 0.734375 -0.1875 1.140625q-1.390625 -1.3125 -3.390625 -2.125q-1.984375 -0.8125 -4.65625 -0.8125q-3.75 0 -6.109375 1.75q-2.359375 1.75 -3.453125 5.328125q-1.09375 3.578125 -1.09375 8.953125q0 4.140625 0.6875 7.15625q0.6875 3.0 2.109375 4.953125q1.421875 1.953125 3.65625 2.890625q2.25 0.9375 5.25 0.9375zm36.02762 -15.703125q0 4.3125 0.765625 7.328125q0.78125 3.0 2.28125 4.875q1.515625 1.875 3.78125 2.734375q2.28125 0.84375 5.296875 0.84375q3.09375 0 5.328125 -0.96875q2.234375 -0.984375 3.890625 -2.640625q1.671875 -1.671875 2.890625 -3.703125l5.453125 3.8125q-1.703125 3.25 -4.390625 5.609375q-2.6875 2.359375 -6.34375 3.578125q-3.65625 1.21875 -8.625 1.21875q-7.484375 0 -12.96875 -2.59375q-5.484375 -2.609375 -8.5 -7.6875q-2.9999695 -5.078125 -2.9999695 -12.328125q0 -6.984375 2.8749695 -12.1875q2.890625 -5.203125 8.09375 -8.093748q5.203125 -2.890625 11.953125 -2.890625q5.453125 0 9.4375 1.625q3.984375 1.625 6.625 4.796873q2.65625 3.171875 3.984375 7.9375q1.34375 4.75 1.4375 11.09375l-33.671875 0l0 -5.765625l22.109375 0l-1.703125 2.265625q-0.078125 -4.625 -0.578125 -7.625q-0.484375 -3.015625 -1.375 -4.71875q-0.890625 -1.71875 -2.40625 -2.40625q-1.5 -0.703125 -3.609375 -0.703125q-2.109375 0 -3.78125 0.859375q-1.671875 0.859375 -2.859375 2.765625q-1.171875 1.90625 -1.78125 5.125q-0.609375 3.21875 -0.609375 7.84375zm78.32483 14.8125l0 -44.25l7.078125 0q3.0 0 5.109375 1.1875q2.125 1.171875 3.21875 3.578125q1.109375 2.390625 1.109375 6.21875q0 3.812498 -1.140625 6.374998q-1.140625 2.5625 -3.296875 3.828125q-2.15625 1.265625 -5.25 1.265625l-9.1875 0l0 6.5l12.03125 0q6.59375 0 11.46875 -2.15625q4.875 -2.15625 7.5625 -6.265625q2.6875 -4.109375 2.6875 -9.796873q0 -8.375 -5.65625 -12.84375q-5.640625 -4.484376 -15.734375 -4.484376l-30.984375 0l0 5.859376l0.8125 0q2.203125 0 3.625 0.578125q1.421875 0.5625 1.421875 2.359375l0 40.171875q0 1.78125 -1.421875 2.359375q-1.421875 0.5625 -3.625 0.5625l-0.8125 0l0 5.859375l27.984375 0l0 -6.09375l-1.953125 0q-0.984375 0 -1.875 -0.046875q-0.890625 -0.046875 -1.625 -0.15625q-0.734375 -0.125 -1.140625 -0.25q-0.40625 -0.125 -0.40625 -0.359375zm72.6192 -37.34375l0 12.937498q-0.640625 -0.078125 -1.75 -0.203125q-1.09375 -0.125 -2.359375 -0.203125q-1.25 -0.078125 -2.390625 -0.078125q-1.796875 0 -3.390625 0.25q-1.578125 0.234375 -2.921875 0.8125q-1.328125 0.5625 -2.46875 1.421875q-1.140625 0.84375 -2.203125 2.234375l-0.234375 -3.09375q1.953125 -4.640625 3.859375 -7.890625q1.90625 -3.249998 4.390625 -4.953123q2.484375 -1.71875 6.140625 -1.71875q1.140625 0 2.03125 0.171875q0.890625 0.15625 1.296875 0.3125zm-35.125 44.25l0 -5.375l0.234375 0q2.203125 0 3.421875 -0.84375q1.21875 -0.859375 1.21875 -3.21875l0 -25.609375q0 -0.8125 -0.453125 -1.296875q-0.4375 -0.5 -1.34375 -0.78125q-0.890625 -0.28125 -2.34375 -0.609375l-0.734375 -0.171875l0 -6.015623l17.5625 0l1.140625 12.687498l0.484375 -0.234375l0 24.96875q0 0.484375 0.84375 0.734375q0.859375 0.234375 2.15625 0.3125q1.3125 0.078125 2.53125 0.078125l0.890625 0l0 5.375l-25.609375 0zm88.16284 -21.875q0 6.984375 -2.890625 12.109375q-2.890625 5.125 -8.296875 7.9375q-5.40625 2.796875 -12.96875 2.796875q-7.65625 0 -13.0625 -2.796875q-5.40625 -2.8125 -8.296875 -7.9375q-2.875 -5.125 -2.875 -12.109375q0 -5.28125 1.625 -9.515625q1.625 -4.234375 4.796875 -7.234375q3.171875 -3.015623 7.640625 -4.593748q4.46875 -1.59375 10.171875 -1.59375q5.6875 0 10.109375 1.59375q4.4375 1.578125 7.609375 4.593748q3.171875 3.0 4.796875 7.234375q1.640625 4.234375 1.640625 9.515625zm-33.671875 0q0 5.609375 0.96875 9.234375q0.984375 3.609375 3.09375 5.28125q2.109375 1.671875 5.453125 1.671875q3.328125 0 5.40625 -1.671875q2.078125 -1.671875 3.046875 -5.28125q0.96875 -3.625 0.96875 -9.234375q0 -5.609375 -0.96875 -9.1875q-0.96875 -3.578125 -3.046875 -5.25q-2.078125 -1.671875 -5.40625 -1.671875q-3.34375 0 -5.453125 1.671875q-2.109375 1.671875 -3.09375 5.25q-0.96875 3.578125 -0.96875 9.1875zm37.642944 -15.53125l0 -6.109373l0.65625 0q2.03125 0 3.53125 -0.3125q1.515625 -0.328125 2.359375 -1.34375q0.859375 -1.015625 0.859375 -2.96875l8.453125 4.21875l17.8125 0l0 6.515623l-33.671875 0zm21.078125 23.5q0 2.84375 0.8125 4.46875q0.8125 1.625 2.34375 2.234375q1.546875 0.609375 3.671875 0.609375q1.953125 0 3.53125 -0.28125q1.59375 -0.28125 2.15625 -0.4375l0 6.90625q-0.8125 0.328125 -2.359375 0.609375q-1.546875 0.28125 -3.421875 0.484375q-1.859375 0.203125 -3.96875 0.203125q-4.890625 0 -8.71875 -1.21875q-3.8125 -1.21875 -6.046875 -4.296875q-2.234375 -3.09375 -2.234375 -8.625l0 -29.203123l0.5625 -0.65625l0 -13.171876l13.671875 0l0 42.375zm65.468994 -7.96875q0 6.984375 -2.890625 12.109375q-2.890625 5.125 -8.296875 7.9375q-5.40625 2.796875 -12.96875 2.796875q-7.65625 0 -13.0625 -2.796875q-5.40625 -2.8125 -8.296875 -7.9375q-2.875 -5.125 -2.875 -12.109375q0 -5.28125 1.625 -9.515625q1.625 -4.234375 4.796875 -7.234375q3.171875 -3.015623 7.640625 -4.593748q4.46875 -1.59375 10.171875 -1.59375q5.6875 0 10.109375 1.59375q4.4375 1.578125 7.609375 4.593748q3.171875 3.0 4.796875 7.234375q1.640625 4.234375 1.640625 9.515625zm-33.671875 0q0 5.609375 0.96875 9.234375q0.984375 3.609375 3.09375 5.28125q2.109375 1.671875 5.453125 1.671875q3.328125 0 5.40625 -1.671875q2.078125 -1.671875 3.046875 -5.28125q0.96875 -3.625 0.96875 -9.234375q0 -5.609375 -0.96875 -9.1875q-0.96875 -3.578125 -3.046875 -5.25q-2.078125 -1.671875 -5.40625 -1.671875q-3.34375 0 -5.453125 1.671875q-2.109375 1.671875 -3.09375 5.25q-0.96875 3.578125 -0.96875 9.1875zm66.111694 15.859375q2.84375 0 5.0 -1.140625q2.15625 -1.140625 3.78125 -3.0q1.625 -1.875 2.765625 -3.828125l5.203125 3.5q-1.53125 3.40625 -4.1875 6.015625q-2.640625 2.59375 -6.296875 3.984375q-3.65625 1.375 -8.375 1.375q-7.234375 0 -12.734375 -2.640625q-5.484375 -2.640625 -8.53125 -7.765625q-3.046875 -5.125 -3.046875 -12.4375q0 -7.328125 2.96875 -12.40625q2.96875 -5.078123 8.484375 -7.718748q5.53125 -2.65625 13.265625 -2.65625q4.640625 0 8.09375 0.65625q3.453125 0.65625 5.71875 1.515625q2.28125 0.84375 3.34375 1.484375l0 13.515623l-11.140625 0l0 -11.968748q1.0625 0 1.703125 0.5312481q0.65625 0.53125 0.9375 1.3125q0.28125 0.765625 0.234375 1.5q-0.03125 0.734375 -0.1875 1.140625q-1.390625 -1.3125 -3.390625 -2.125q-1.984375 -0.8125 -4.65625 -0.8125q-3.75 0 -6.109375 1.75q-2.359375 1.75 -3.453125 5.328125q-1.09375 3.578125 -1.09375 8.953125q0 4.140625 0.6875 7.15625q0.6875 3.0 2.109375 4.953125q1.421875 1.953125 3.65625 2.890625q2.25 0.9375 5.25 0.9375zm70.27765 -15.859375q0 6.984375 -2.890625 12.109375q-2.890625 5.125 -8.296875 7.9375q-5.40625 2.796875 -12.96875 2.796875q-7.65625 0 -13.0625 -2.796875q-5.40625 -2.8125 -8.296875 -7.9375q-2.875 -5.125 -2.875 -12.109375q0 -5.28125 1.625 -9.515625q1.625 -4.234375 4.796875 -7.234375q3.171875 -3.015623 7.640625 -4.593748q4.46875 -1.59375 10.171875 -1.59375q5.6875 0 10.109375 1.59375q4.4375 1.578125 7.609375 4.593748q3.171875 3.0 4.796875 7.234375q1.640625 4.234375 1.640625 9.515625zm-33.671875 0q0 5.609375 0.96875 9.234375q0.984375 3.609375 3.09375 5.28125q2.109375 1.671875 5.453125 1.671875q3.328125 0 5.40625 -1.671875q2.078125 -1.671875 3.046875 -5.28125q0.96875 -3.625 0.96875 -9.234375q0 -5.609375 -0.96875 -9.1875q-0.96875 -3.578125 -3.046875 -5.25q-2.078125 -1.671875 -5.40625 -1.671875q-3.34375 0 -5.453125 1.671875q-2.109375 1.671875 -3.09375 5.25q-0.96875 3.578125 -0.96875 9.1875zm58.54596 -39.765625l0 52.375q0 2.265625 1.265625 3.078125q1.265625 0.8125 3.375 0.8125l0.25 0l0 5.375l-24.078125 0l0 -5.375l0.25 0q2.1875 0 3.4375 -0.8125q1.265625 -0.8125 1.265625 -3.078125l0 -43.59375q0 -0.8125 -0.453125 -1.296875q-0.4375 -0.5 -1.375 -0.8125q-0.921875 -0.328125 -2.390625 -0.57812595l-0.734375 -0.15625l0 -5.9375l19.1875 0z" fill-rule="nonzero"/></g></svg>